<?xml version="1.0" encoding="utf-8" ?>
<svg xmlns="http://www.w3.org/2000/svg" xmlns:xlink="http://www.w3.org/1999/xlink" width="400" height="300">
	<rect fill="white" width="400" height="300"/>
	<path fill="none" stroke="#010101" stroke-width="1" stroke-miterlimit="4" stroke-opacity="0.098039217" d="M100.818 255.963L100.818 15M127.883 255.963L127.883 15M154.948 255.963L154.948 15M182.013 255.963L182.013 15M209.078 255.963L209.078 15M236.143 255.963L236.143 15M263.208 255.963L263.208 15M290.273 255.963L290.273 15M317.338 255.963L317.338 15M344.403 255.963L344.403 15M371.467 255.963L371.467 15"/>
	<path fill="none" stroke="#010101" stroke-width="1" stroke-miterlimit="4" stroke-opacity="0.098039217" d="M87.2852 240.73L385 240.73M87.2852 218.799L385 218.799M87.2852 196.868L385 196.868M87.2852 174.936L385 174.936M87.2852 153.005L385 153.005M87.2852 131.073L385 131.073M87.2852 109.142L385 109.142M87.2852 87.2104L385 87.2104M87.2852 65.2789L385 65.2789M87.2852 43.3475L385 43.3475M87.2852 21.416L385 21.416"/>
	<clipPath id="cl_18">
		<rect x="87.285156" y="15" width="297.71484" height="240.96289"/>
	</clipPath>
	<g clip-path="url(#cl_18)">
		<path fill="none" stroke="#1F77B4" stroke-width="1" stroke-miterlimit="4" d="M100.285 240.248L154.285 239.415L181.285 238.307L208.285 236.125L235.285 233.515L344.285 132.17L371.285 30.715"/>
	</g>
	<text transform="translate(236.143 296)" font-size="16" font-family="Pagul" x="-76.539062, -66.921875, -58.84375, -49.703125, -41.96875, -34.703125, -29.179688, -21.445312, -12.257812, -8.2890625, 2.1171875, 12.523438, 16.492188, 26.898438, 31.585938, 38.5, 44.023438, 52.085938, 61.539062, 68.804688, " y="-3.390625, ">
			Expected NN Distance
	</text>
	<path fill="none" stroke="black" stroke-width="1" stroke-miterlimit="4" d="M100.818 255.963L100.818 259.963"/>
	<text transform="translate(100.818 261.963)" font-size="12" font-family="Pagul" x="-3.1699219, " y="10.330078, ">
			5
	</text>
	<path fill="none" stroke="black" stroke-width="1" stroke-miterlimit="4" d="M127.883 255.963L127.883 259.963"/>
	<text transform="translate(127.883 261.963)" font-size="12" font-family="Pagul" x="-6.2109375, -0.8203125, " y="10.330078, ">
			10
	</text>
	<path fill="none" stroke="black" stroke-width="1" stroke-miterlimit="4" d="M154.948 255.963L154.948 259.963"/>
	<text transform="translate(154.948 261.963)" font-size="12" font-family="Pagul" x="-5.8652344, -0.47460938, " y="10.330078, ">
			15
	</text>
	<path fill="none" stroke="black" stroke-width="1" stroke-miterlimit="4" d="M182.013 255.963L182.013 259.963"/>
	<text transform="translate(182.013 261.963)" font-size="12" font-family="Pagul" x="-7.21875, 0.1875, " y="10.330078, ">
			20
	</text>
	<path fill="none" stroke="black" stroke-width="1" stroke-miterlimit="4" d="M209.078 255.963L209.078 259.963"/>
	<text transform="translate(209.078 261.963)" font-size="12" font-family="Pagul" x="-6.8730469, 0.53320312, " y="10.330078, ">
			25
	</text>
	<path fill="none" stroke="black" stroke-width="1" stroke-miterlimit="4" d="M236.143 255.963L236.143 259.963"/>
	<text transform="translate(236.143 261.963)" font-size="12" font-family="Pagul" x="-6.8261719, -0.20507812, " y="10.330078, ">
			30
	</text>
	<path fill="none" stroke="black" stroke-width="1" stroke-miterlimit="4" d="M263.208 255.963L263.208 259.963"/>
	<text transform="translate(263.208 261.963)" font-size="12" font-family="Pagul" x="-6.4804688, 0.140625, " y="10.330078, ">
			35
	</text>
	<path fill="none" stroke="black" stroke-width="1" stroke-miterlimit="4" d="M290.273 255.963L290.273 259.963"/>
	<text transform="translate(290.273 261.963)" font-size="12" font-family="Pagul" x="-6.9052734, -0.12597656, " y="10.330078, ">
			40
	</text>
	<path fill="none" stroke="black" stroke-width="1" stroke-miterlimit="4" d="M317.338 255.963L317.338 259.963"/>
	<text transform="translate(317.338 261.963)" font-size="12" font-family="Pagul" x="-6.5595703, 0.21972656, " y="10.330078, ">
			45
	</text>
	<path fill="none" stroke="black" stroke-width="1" stroke-miterlimit="4" d="M344.403 255.963L344.403 259.963"/>
	<text transform="translate(344.403 261.963)" font-size="12" font-family="Pagul" x="-6.6855469, -0.34570312, " y="10.330078, ">
			50
	</text>
	<path fill="none" stroke="black" stroke-width="1" stroke-miterlimit="4" d="M371.467 255.963L371.467 259.963"/>
	<text transform="translate(371.467 261.963)" font-size="12" font-family="Pagul" x="-6.3398438, 0, " y="10.330078, ">
			55
	</text>
	<path fill="none" stroke="black" stroke-width="1" stroke-miterlimit="4" d="M89.9917 255.963L89.9917 257.963"/>
	<path fill="none" stroke="black" stroke-width="1" stroke-miterlimit="4" d="M95.4046 255.963L95.4046 257.963"/>
	<path fill="none" stroke="black" stroke-width="1" stroke-miterlimit="4" d="M106.231 255.963L106.231 257.963"/>
	<path fill="none" stroke="black" stroke-width="1" stroke-miterlimit="4" d="M111.644 255.963L111.644 257.963"/>
	<path fill="none" stroke="black" stroke-width="1" stroke-miterlimit="4" d="M117.057 255.963L117.057 257.963"/>
	<path fill="none" stroke="black" stroke-width="1" stroke-miterlimit="4" d="M122.47 255.963L122.47 257.963"/>
	<path fill="none" stroke="black" stroke-width="1" stroke-miterlimit="4" d="M133.296 255.963L133.296 257.963"/>
	<path fill="none" stroke="black" stroke-width="1" stroke-miterlimit="4" d="M138.709 255.963L138.709 257.963"/>
	<path fill="none" stroke="black" stroke-width="1" stroke-miterlimit="4" d="M144.122 255.963L144.122 257.963"/>
	<path fill="none" stroke="black" stroke-width="1" stroke-miterlimit="4" d="M149.535 255.963L149.535 257.963"/>
	<path fill="none" stroke="black" stroke-width="1" stroke-miterlimit="4" d="M160.361 255.963L160.361 257.963"/>
	<path fill="none" stroke="black" stroke-width="1" stroke-miterlimit="4" d="M165.774 255.963L165.774 257.963"/>
	<path fill="none" stroke="black" stroke-width="1" stroke-miterlimit="4" d="M171.187 255.963L171.187 257.963"/>
	<path fill="none" stroke="black" stroke-width="1" stroke-miterlimit="4" d="M176.6 255.963L176.6 257.963"/>
	<path fill="none" stroke="black" stroke-width="1" stroke-miterlimit="4" d="M187.426 255.963L187.426 257.963"/>
	<path fill="none" stroke="black" stroke-width="1" stroke-miterlimit="4" d="M192.839 255.963L192.839 257.963"/>
	<path fill="none" stroke="black" stroke-width="1" stroke-miterlimit="4" d="M198.252 255.963L198.252 257.963"/>
	<path fill="none" stroke="black" stroke-width="1" stroke-miterlimit="4" d="M203.665 255.963L203.665 257.963"/>
	<path fill="none" stroke="black" stroke-width="1" stroke-miterlimit="4" d="M214.491 255.963L214.491 257.963"/>
	<path fill="none" stroke="black" stroke-width="1" stroke-miterlimit="4" d="M219.904 255.963L219.904 257.963"/>
	<path fill="none" stroke="black" stroke-width="1" stroke-miterlimit="4" d="M225.317 255.963L225.317 257.963"/>
	<path fill="none" stroke="black" stroke-width="1" stroke-miterlimit="4" d="M230.73 255.963L230.73 257.963"/>
	<path fill="none" stroke="black" stroke-width="1" stroke-miterlimit="4" d="M241.556 255.963L241.556 257.963"/>
	<path fill="none" stroke="black" stroke-width="1" stroke-miterlimit="4" d="M246.969 255.963L246.969 257.963"/>
	<path fill="none" stroke="black" stroke-width="1" stroke-miterlimit="4" d="M252.382 255.963L252.382 257.963"/>
	<path fill="none" stroke="black" stroke-width="1" stroke-miterlimit="4" d="M257.795 255.963L257.795 257.963"/>
	<path fill="none" stroke="black" stroke-width="1" stroke-miterlimit="4" d="M268.621 255.963L268.621 257.963"/>
	<path fill="none" stroke="black" stroke-width="1" stroke-miterlimit="4" d="M274.034 255.963L274.034 257.963"/>
	<path fill="none" stroke="black" stroke-width="1" stroke-miterlimit="4" d="M279.447 255.963L279.447 257.963"/>
	<path fill="none" stroke="black" stroke-width="1" stroke-miterlimit="4" d="M284.86 255.963L284.86 257.963"/>
	<path fill="none" stroke="black" stroke-width="1" stroke-miterlimit="4" d="M295.686 255.963L295.686 257.963"/>
	<path fill="none" stroke="black" stroke-width="1" stroke-miterlimit="4" d="M301.099 255.963L301.099 257.963"/>
	<path fill="none" stroke="black" stroke-width="1" stroke-miterlimit="4" d="M306.512 255.963L306.512 257.963"/>
	<path fill="none" stroke="black" stroke-width="1" stroke-miterlimit="4" d="M311.925 255.963L311.925 257.963"/>
	<path fill="none" stroke="black" stroke-width="1" stroke-miterlimit="4" d="M322.751 255.963L322.751 257.963"/>
	<path fill="none" stroke="black" stroke-width="1" stroke-miterlimit="4" d="M328.164 255.963L328.164 257.963"/>
	<path fill="none" stroke="black" stroke-width="1" stroke-miterlimit="4" d="M333.577 255.963L333.577 257.963"/>
	<path fill="none" stroke="black" stroke-width="1" stroke-miterlimit="4" d="M338.99 255.963L338.99 257.963"/>
	<path fill="none" stroke="black" stroke-width="1" stroke-miterlimit="4" d="M349.816 255.963L349.816 257.963"/>
	<path fill="none" stroke="black" stroke-width="1" stroke-miterlimit="4" d="M355.229 255.963L355.229 257.963"/>
	<path fill="none" stroke="black" stroke-width="1" stroke-miterlimit="4" d="M360.642 255.963L360.642 257.963"/>
	<path fill="none" stroke="black" stroke-width="1" stroke-miterlimit="4" d="M366.055 255.963L366.055 257.963"/>
	<path fill="none" stroke="black" stroke-width="1" stroke-miterlimit="4" d="M376.88 255.963L376.88 257.963"/>
	<path fill="none" stroke="black" stroke-width="1" stroke-miterlimit="4" d="M382.293 255.963L382.293 257.963"/>
	<path fill="none" stroke="black" stroke-width="1" stroke-miterlimit="4" d="M87.2852 255.963L385 255.963"/>
	<path fill="none" stroke="black" stroke-width="1" stroke-miterlimit="4" d="M87.2852 15.1L385 15.1"/>
	<text transform="matrix(0 -1 1 0 4 135.481)" font-size="16" font-family="Pagul" x="-52.472656, -40.457031, -31.253906, -26.675781, -21.152344, -16.464844, -7.3242188, -2.7460938, 1.9414062, 9.2070312, 17.269531, 22.792969, 27.480469, 36.105469, 45.558594, " y="13.773438, ">
			Multiplications
	</text>
	<path fill="none" stroke="black" stroke-width="1" stroke-miterlimit="4" d="M87.2852 240.73L83.2852 240.73"/>
	<text transform="translate(78.2852 240.73)" font-size="12" font-family="Pagul" x="-7.03125, " y="3.8935547, ">
			0
	</text>
	<path fill="none" stroke="black" stroke-width="1" stroke-miterlimit="4" d="M87.2852 218.799L83.2852 218.799"/>
	<text transform="translate(78.2852 218.799)" font-size="12" font-family="Pagul" x="-45.826172, -38.419922, -31.388672, -24.357422, -21.09375, -14.0625, -7.03125, " y="3.8935547, ">
			200,000
	</text>
	<path fill="none" stroke="black" stroke-width="1" stroke-miterlimit="4" d="M87.2852 196.868L83.2852 196.868"/>
	<text transform="translate(78.2852 196.868)" font-size="12" font-family="Pagul" x="-45.199219, -38.419922, -31.388672, -24.357422, -21.09375, -14.0625, -7.03125, " y="3.8935547, ">
			400,000
	</text>
	<path fill="none" stroke="black" stroke-width="1" stroke-miterlimit="4" d="M87.2852 174.936L83.2852 174.936"/>
	<text transform="translate(78.2852 174.936)" font-size="12" font-family="Pagul" x="-45.210938, -38.419922, -31.388672, -24.357422, -21.09375, -14.0625, -7.03125, " y="3.8935547, ">
			600,000
	</text>
	<path fill="none" stroke="black" stroke-width="1" stroke-miterlimit="4" d="M87.2852 153.005L83.2852 153.005"/>
	<text transform="translate(78.2852 153.005)" font-size="12" font-family="Pagul" x="-45.574219, -38.419922, -31.388672, -24.357422, -21.09375, -14.0625, -7.03125, " y="3.8935547, ">
			800,000
	</text>
	<path fill="none" stroke="black" stroke-width="1" stroke-miterlimit="4" d="M87.2852 131.073L83.2852 131.073"/>
	<text transform="translate(78.2852 131.073)" font-size="12" font-family="Pagul" x="-54.105469, -48.714844, -45.451172, -38.419922, -31.388672, -24.357422, -21.09375, -14.0625, -7.03125, " y="3.8935547, ">
			1,000,000
	</text>
	<path fill="none" stroke="black" stroke-width="1" stroke-miterlimit="4" d="M87.2852 109.142L83.2852 109.142"/>
	<text transform="translate(78.2852 109.142)" font-size="12" font-family="Pagul" x="-54.480469, -49.089844, -45.826172, -38.419922, -31.388672, -24.357422, -21.09375, -14.0625, -7.03125, " y="3.8935547, ">
			1,200,000
	</text>
	<path fill="none" stroke="black" stroke-width="1" stroke-miterlimit="4" d="M87.2852 87.2104L83.2852 87.2104"/>
	<text transform="translate(78.2852 87.2104)" font-size="12" font-family="Pagul" x="-53.853516, -48.462891, -45.199219, -38.419922, -31.388672, -24.357422, -21.09375, -14.0625, -7.03125, " y="3.8935547, ">
			1,400,000
	</text>
	<path fill="none" stroke="black" stroke-width="1" stroke-miterlimit="4" d="M87.2852 65.2789L83.2852 65.2789"/>
	<text transform="translate(78.2852 65.2789)" font-size="12" font-family="Pagul" x="-53.865234, -48.474609, -45.210938, -38.419922, -31.388672, -24.357422, -21.09375, -14.0625, -7.03125, " y="3.8935547, ">
			1,600,000
	</text>
	<path fill="none" stroke="black" stroke-width="1" stroke-miterlimit="4" d="M87.2852 43.3475L83.2852 43.3475"/>
	<text transform="translate(78.2852 43.3475)" font-size="12" font-family="Pagul" x="-54.228516, -48.837891, -45.574219, -38.419922, -31.388672, -24.357422, -21.09375, -14.0625, -7.03125, " y="3.8935547, ">
			1,800,000
	</text>
	<path fill="none" stroke="black" stroke-width="1" stroke-miterlimit="4" d="M87.2852 21.416L83.2852 21.416"/>
	<text transform="translate(78.2852 21.416)" font-size="12" font-family="Pagul" x="-56.121094, -48.714844, -45.451172, -38.419922, -31.388672, -24.357422, -21.09375, -14.0625, -7.03125, " y="3.8935547, ">
			2,000,000
	</text>
	<path fill="none" stroke="black" stroke-width="1" stroke-miterlimit="4" d="M87.2852 253.889L85.2852 253.889"/>
	<path fill="none" stroke="black" stroke-width="1" stroke-miterlimit="4" d="M87.2852 249.503L85.2852 249.503"/>
	<path fill="none" stroke="black" stroke-width="1" stroke-miterlimit="4" d="M87.2852 245.117L85.2852 245.117"/>
	<path fill="none" stroke="black" stroke-width="1" stroke-miterlimit="4" d="M87.2852 236.344L85.2852 236.344"/>
	<path fill="none" stroke="black" stroke-width="1" stroke-miterlimit="4" d="M87.2852 231.958L85.2852 231.958"/>
	<path fill="none" stroke="black" stroke-width="1" stroke-miterlimit="4" d="M87.2852 227.572L85.2852 227.572"/>
	<path fill="none" stroke="black" stroke-width="1" stroke-miterlimit="4" d="M87.2852 223.185L85.2852 223.185"/>
	<path fill="none" stroke="black" stroke-width="1" stroke-miterlimit="4" d="M87.2852 214.413L85.2852 214.413"/>
	<path fill="none" stroke="black" stroke-width="1" stroke-miterlimit="4" d="M87.2852 210.026L85.2852 210.026"/>
	<path fill="none" stroke="black" stroke-width="1" stroke-miterlimit="4" d="M87.2852 205.64L85.2852 205.64"/>
	<path fill="none" stroke="black" stroke-width="1" stroke-miterlimit="4" d="M87.2852 201.254L85.2852 201.254"/>
	<path fill="none" stroke="black" stroke-width="1" stroke-miterlimit="4" d="M87.2852 192.481L85.2852 192.481"/>
	<path fill="none" stroke="black" stroke-width="1" stroke-miterlimit="4" d="M87.2852 188.095L85.2852 188.095"/>
	<path fill="none" stroke="black" stroke-width="1" stroke-miterlimit="4" d="M87.2852 183.709L85.2852 183.709"/>
	<path fill="none" stroke="black" stroke-width="1" stroke-miterlimit="4" d="M87.2852 179.322L85.2852 179.322"/>
	<path fill="none" stroke="black" stroke-width="1" stroke-miterlimit="4" d="M87.2852 170.55L85.2852 170.55"/>
	<path fill="none" stroke="black" stroke-width="1" stroke-miterlimit="4" d="M87.2852 166.164L85.2852 166.164"/>
	<path fill="none" stroke="black" stroke-width="1" stroke-miterlimit="4" d="M87.2852 161.777L85.2852 161.777"/>
	<path fill="none" stroke="black" stroke-width="1" stroke-miterlimit="4" d="M87.2852 157.391L85.2852 157.391"/>
	<path fill="none" stroke="black" stroke-width="1" stroke-miterlimit="4" d="M87.2852 148.618L85.2852 148.618"/>
	<path fill="none" stroke="black" stroke-width="1" stroke-miterlimit="4" d="M87.2852 144.232L85.2852 144.232"/>
	<path fill="none" stroke="black" stroke-width="1" stroke-miterlimit="4" d="M87.2852 139.846L85.2852 139.846"/>
	<path fill="none" stroke="black" stroke-width="1" stroke-miterlimit="4" d="M87.2852 135.46L85.2852 135.46"/>
	<path fill="none" stroke="black" stroke-width="1" stroke-miterlimit="4" d="M87.2852 126.687L85.2852 126.687"/>
	<path fill="none" stroke="black" stroke-width="1" stroke-miterlimit="4" d="M87.2852 122.301L85.2852 122.301"/>
	<path fill="none" stroke="black" stroke-width="1" stroke-miterlimit="4" d="M87.2852 117.914L85.2852 117.914"/>
	<path fill="none" stroke="black" stroke-width="1" stroke-miterlimit="4" d="M87.2852 113.528L85.2852 113.528"/>
	<path fill="none" stroke="black" stroke-width="1" stroke-miterlimit="4" d="M87.2852 104.756L85.2852 104.756"/>
	<path fill="none" stroke="black" stroke-width="1" stroke-miterlimit="4" d="M87.2852 100.369L85.2852 100.369"/>
	<path fill="none" stroke="black" stroke-width="1" stroke-miterlimit="4" d="M87.2852 95.9829L85.2852 95.9829"/>
	<path fill="none" stroke="black" stroke-width="1" stroke-miterlimit="4" d="M87.2852 91.5966L85.2852 91.5966"/>
	<path fill="none" stroke="black" stroke-width="1" stroke-miterlimit="4" d="M87.2852 82.8241L85.2852 82.8241"/>
	<path fill="none" stroke="black" stroke-width="1" stroke-miterlimit="4" d="M87.2852 78.4378L85.2852 78.4378"/>
	<path fill="none" stroke="black" stroke-width="1" stroke-miterlimit="4" d="M87.2852 74.0515L85.2852 74.0515"/>
	<path fill="none" stroke="black" stroke-width="1" stroke-miterlimit="4" d="M87.2852 69.6652L85.2852 69.6652"/>
	<path fill="none" stroke="black" stroke-width="1" stroke-miterlimit="4" d="M87.2852 60.8926L85.2852 60.8926"/>
	<path fill="none" stroke="black" stroke-width="1" stroke-miterlimit="4" d="M87.2852 56.5063L85.2852 56.5063"/>
	<path fill="none" stroke="black" stroke-width="1" stroke-miterlimit="4" d="M87.2852 52.1201L85.2852 52.1201"/>
	<path fill="none" stroke="black" stroke-width="1" stroke-miterlimit="4" d="M87.2852 47.7338L85.2852 47.7338"/>
	<path fill="none" stroke="black" stroke-width="1" stroke-miterlimit="4" d="M87.2852 38.9612L85.2852 38.9612"/>
	<path fill="none" stroke="black" stroke-width="1" stroke-miterlimit="4" d="M87.2852 34.5749L85.2852 34.5749"/>
	<path fill="none" stroke="black" stroke-width="1" stroke-miterlimit="4" d="M87.2852 30.1886L85.2852 30.1886"/>
	<path fill="none" stroke="black" stroke-width="1" stroke-miterlimit="4" d="M87.2852 25.8023L85.2852 25.8023"/>
	<path fill="none" stroke="black" stroke-width="1" stroke-miterlimit="4" d="M87.2852 17.0298L85.2852 17.0298"/>
	<path fill="none" stroke="black" stroke-width="1" stroke-miterlimit="4" d="M87.2852 255.963L87.2852 15"/>
	<path fill="none" stroke="black" stroke-width="1" stroke-miterlimit="4" d="M385 255.963L385 15"/>
</svg>
